<?xml version="1.0" encoding="UTF-8" standalone="no"?>
<!-- Generator: Adobe Illustrator 19.1.0, SVG Export Plug-In . SVG Version: 6.00 Build 0)  -->

<svg
   version="1.1"
   x="0px"
   y="0px"
   viewBox="0 0 64 64"
   style="enable-background:new 0 0 64 64;"
   xml:space="preserve"
   id="svg552"
   sodipodi:docname="brainwave_logo.svg"
   inkscape:version="1.2.2 (732a01da63, 2022-12-09)"
   xmlns:inkscape="http://www.inkscape.org/namespaces/inkscape"
   xmlns:sodipodi="http://sodipodi.sourceforge.net/DTD/sodipodi-0.dtd"
   xmlns:xlink="http://www.w3.org/1999/xlink"
   xmlns="http://www.w3.org/2000/svg"
   xmlns:svg="http://www.w3.org/2000/svg"><defs
   id="defs556" /><sodipodi:namedview
   id="namedview554"
   pagecolor="#ffffff"
   bordercolor="#000000"
   borderopacity="0.25"
   inkscape:showpageshadow="2"
   inkscape:pageopacity="0.0"
   inkscape:pagecheckerboard="0"
   inkscape:deskcolor="#d1d1d1"
   showgrid="false"
   inkscape:zoom="6.5625"
   inkscape:cx="37.257143"
   inkscape:cy="39.390476"
   inkscape:window-width="1920"
   inkscape:window-height="1001"
   inkscape:window-x="-9"
   inkscape:window-y="-9"
   inkscape:window-maximized="1"
   inkscape:current-layer="svg552" />
<style
   type="text/css"
   id="style522">
	.st0{fill:#4F5D73;}
	.st1{opacity:0.2;}
	.st2{fill:#231F20;}
	.st3{fill:#E0995E;}
	.st4{fill:#FFFFFF;}
</style>
<g
   id="Layer_1"
   style="fill:#4f5d73;fill-opacity:1">
	<g
   id="g526"
   style="fill:#4f5d73;fill-opacity:1">
		
	</g>
	
	
	
	
	
</g>
<g
   id="Layer_2">
</g>
<circle
   style="fill:#490082;stroke-width:0.0558445;fill-opacity:0.87239575"
   id="path253"
   cx="33.343925"
   cy="29.612188"
   r="25.000002" /><path
   d="M 39.62764,49.795387 C 39.393053,49.667791 38.980749,49.149926 38.711404,48.644586 38.442048,48.13924 37.741025,47.123428 37.153557,46.387222 35.606834,44.448925 34.116931,42.224211 33.942504,41.592544 33.83704,41.210503 33.650913,40.986958 33.326393,40.85254 c -0.566448,-0.23463 -1.922858,-1.641 -2.303068,-2.387909 -0.152684,-0.299922 -0.291211,-0.56206 -0.307859,-0.582527 -0.04948,-0.06084 -1.069337,0.493073 -1.76598,0.95914 -1.155843,0.773269 -3.17362,0.715649 -3.822407,-0.10916 -0.180307,-0.229228 -0.612414,-0.445311 -1.146809,-0.573518 -0.69114,-0.165799 -1.034649,-0.378003 -1.770634,-1.093844 -0.746346,-0.725907 -0.933311,-1.014312 -1.02352,-1.578848 l -0.110375,-0.690701 -0.887936,0.08793 c -0.488375,0.04836 -1.358868,0.136407 -1.934431,0.19566 -0.663459,0.0683 -1.252212,0.03983 -1.60857,-0.07778 -0.580408,-0.191552 -1.384915,-0.831398 -1.384915,-1.101462 0,-0.08436 0.463405,-0.203009 1.029793,-0.263667 0.566387,-0.06065 1.029792,-0.162975 1.029792,-0.227383 0,-0.06441 -0.537199,-0.157737 -1.193782,-0.207391 -2.547696,-0.192683 -3.881189,-1.866484 -3.873216,-4.861699 0.0045,-1.693609 0.384112,-3.098155 1.392994,-5.154059 0.513121,-1.045638 1.058061,-2.19659 1.210944,-2.557678 0.315659,-0.74542 1.157012,-1.603585 2.542279,-2.593023 0.522815,-0.37343 1.117992,-0.884631 1.322619,-1.136004 0.441102,-0.541869 2.031551,-1.62763 3.034206,-2.07138 0.392114,-0.17354 1.532808,-0.651961 2.534881,-1.063148 1.002066,-0.411195 2.174547,-0.972728 2.605508,-1.247853 0.430961,-0.275131 0.930013,-0.502499 1.109014,-0.505269 0.178991,-0.0028 0.463831,-0.109712 0.632976,-0.237648 0.373603,-0.282577 2.110963,-0.314932 2.692133,-0.05013 0.220259,0.100369 0.439376,0.304991 0.486902,0.454725 0.0674,0.21252 0.35487,0.296579 1.310086,0.38316 0.67303,0.06101 1.651451,0.102886 2.174265,0.09306 0.582986,-0.01093 1.305323,0.104838 1.867928,0.299396 0.683957,0.236522 1.019097,0.278531 1.317355,0.165141 0.833301,-0.316818 1.430811,-0.185252 2.206113,0.485765 0.91276,0.789985 1.819886,1.263305 2.421153,1.263305 0.653791,0 1.505901,0.622102 1.686418,1.231239 0.08336,0.281322 0.215176,0.511489 0.292917,0.511489 0.476356,0 1.308367,0.615767 1.706651,1.263073 0.248693,0.404153 0.7402,0.966303 1.09227,1.249229 0.628278,0.504907 1.27183,1.515208 1.27183,1.996646 0,0.134171 0.103008,0.243954 0.228804,0.243954 0.497817,0 1.068206,0.800477 1.919162,2.69331 0.721686,1.605355 0.875462,2.09299 0.812024,2.575045 -0.04309,0.327075 -0.0049,0.832524 0.08398,1.123231 0.212549,0.692551 -0.375238,3.415117 -0.919378,4.258418 -0.48818,0.756576 -1.17318,1.118055 -1.870728,0.987196 -0.463526,-0.08696 -0.540248,-0.05322 -0.616172,0.2709 -0.04764,0.203626 -0.03278,0.707901 0.03315,1.120612 0.124052,0.776719 -0.135679,3.012684 -0.441034,3.796774 -0.09171,0.235392 -0.363132,0.734443 -0.603231,1.109011 -0.520236,0.81159 -0.922632,1.50709 -1.139441,1.969459 -0.177435,0.378367 -0.776382,0.840305 -1.606307,1.238844 -1.307839,0.628046 -1.956768,1.048373 -2.12141,1.374063 -0.149921,0.296612 -1.19011,1.115662 -1.974006,1.55435 -0.192401,0.107674 -0.146594,0.308479 0.27665,1.212918 0.278958,0.596137 0.549947,1.39573 0.602188,1.776872 0.08508,0.621095 0.04886,0.732586 -0.349234,1.074696 -0.244311,0.209941 -0.569899,0.381706 -0.723491,0.381706 -0.153579,0 -0.374194,0.03299 -0.490254,0.0733 -0.116022,0.04032 -0.402924,-0.03109 -0.637535,-0.158696 z m -0.317264,-1.538512 c -0.355778,-0.80601 -0.787321,-1.665642 -0.958998,-1.910283 -0.171677,-0.244641 -0.272352,-0.484578 -0.223746,-0.533189 0.142665,-0.14266 0.932503,1.214296 1.521113,2.613283 0.299829,0.712618 0.63848,1.295667 0.752551,1.295667 0.114058,0 0.207392,-0.01999 0.207392,-0.04442 0,-0.09492 -1.101675,-2.650451 -1.347643,-3.126095 -0.143009,-0.276557 -0.223795,-0.539065 -0.179498,-0.58335 0.09466,-0.09468 0.845186,1.385946 1.360707,2.684458 0.198908,0.501034 0.460321,0.910973 0.580911,0.910973 0.305735,0 0.273458,-0.271024 -0.09368,-0.786613 -0.172107,-0.241692 -0.390499,-0.64481 -0.485331,-0.89582 -0.708586,-1.87557 -0.96343,-2.250405 -1.812483,-2.665802 -1.437748,-0.703425 -2.679608,-1.978702 -2.819486,-2.89538 -0.02431,-0.159259 -0.24393,-0.551407 -0.488044,-0.871447 -0.256993,-0.336967 -0.42468,-0.735436 -0.398357,-0.946708 0.0469,-0.376494 -0.486718,-1.39603 -1.408945,-2.691986 -0.521758,-0.733209 -1.515624,-1.28587 -1.75759,-0.977355 -0.05869,0.07476 -0.270437,0.323529 -0.470671,0.552825 -0.344876,0.39491 -0.351666,0.446642 -0.128546,0.98062 0.37029,0.886228 1.438607,1.931311 2.399398,2.347202 0.475791,0.20595 0.866278,0.432134 0.867764,0.50263 0.0012,0.0705 -0.06863,0.0841 -0.155716,0.03025 -0.08717,-0.05385 -0.15843,0.04108 -0.15843,0.210956 0,0.3897 1.609634,2.85117 2.905859,4.443663 0.542949,0.667072 1.263272,1.675007 1.600683,2.239866 1.241885,2.079072 1.582476,2.136288 0.690771,0.116047 z m 1.579652,-0.763651 c -0.423907,-0.886544 -0.732736,-1.6499 -0.686302,-1.696338 0.04641,-0.04643 0.406374,0.586093 0.799832,1.405623 0.786658,1.638429 0.816689,1.361625 0.04886,-0.450722 -0.408768,-0.964918 -0.546498,-1.148613 -0.861257,-1.148613 -0.206091,0 -0.374686,0.07468 -0.374686,0.16595 0,0.340033 1.579296,3.499738 1.709131,3.419484 0.07428,-0.0459 -0.211751,-0.808834 -0.635645,-1.695384 z m -0.28134,-2.206915 c 0.217853,-0.06976 0.286386,-0.133953 0.152315,-0.142633 -0.134058,-0.0087 -0.515939,-0.154569 -0.848647,-0.324187 -0.599353,-0.305573 -0.602336,-0.305573 -0.325797,0 0.36932,0.408088 0.06593,0.394966 -0.461574,-0.01996 -0.404323,-0.318031 -0.417448,-0.318751 -0.417448,-0.02292 0,0.479833 1.085616,0.770891 1.901151,0.509705 z m 0.673337,-0.421781 c -0.108902,-0.04395 -0.287159,-0.04395 -0.396073,0 -0.108902,0.04395 -0.01977,0.07991 0.198036,0.07991 0.21784,0 0.306951,-0.03596 0.198037,-0.07991 z M 38.13242,43.441086 C 37.865384,42.850831 37.85431,42.844517 37.797649,43.25 c -0.03217,0.230646 0.06569,0.694059 0.217558,1.0298 0.267036,0.590247 0.278111,0.596569 0.334759,0.191078 0.03229,-0.230646 -0.06568,-0.694052 -0.217546,-1.029792 z m 4.149119,0.820469 c 0.169135,-0.127932 0.222628,-0.23487 0.118846,-0.237647 -0.103745,-0.0028 -0.232745,0.06626 -0.286594,0.153396 -0.143586,0.232327 -1.208502,0.193116 -1.960464,-0.07219 -0.752355,-0.265448 -0.849863,-0.202816 -0.217951,0.14 0.568032,0.308165 1.947695,0.317832 2.346175,0.01644 z M 37.056233,43.42476 c -0.122529,-0.326765 -0.264273,-0.783575 -0.314906,-1.015134 -0.07133,-0.326148 -0.163623,-0.402315 -0.409578,-0.33799 -0.386239,0.100995 -0.400972,0.32628 -0.05513,0.842582 0.283979,0.423975 0.87071,1.104657 0.952183,1.104657 0.02763,0 -0.04997,-0.267356 -0.172548,-0.594115 z m 5.275386,0.33666 c 0.272291,-0.05446 0.495091,-0.161398 0.495091,-0.23764 0,-0.210503 -0.942288,-0.161392 -1.742722,0.09083 l -0.712944,0.224641 0.732736,0.01056 c 0.403022,0.0058 0.955535,-0.03396 1.227839,-0.08842 z M 37.27858,42.428838 c -0.285281,-0.533053 -0.35611,-0.250661 -0.126717,0.505208 0.185808,0.612291 0.214501,0.641252 0.258381,0.260905 0.02713,-0.235316 -0.03205,-0.580067 -0.131664,-0.766113 z m 2.062674,0.956314 c -0.130707,-0.08447 -0.415877,-0.147563 -0.633717,-0.140212 l -0.396086,0.01337 0.396086,0.126843 c 0.21784,0.06976 0.50301,0.132861 0.633717,0.140212 0.211235,0.01191 0.211235,-0.0037 0,-0.140213 z m 3.759699,-0.26822 c -0.154156,-0.04017 -0.368031,-0.03752 -0.475287,0.0059 -0.107306,0.0434 0.01891,0.07627 0.280259,0.07304 0.261413,-0.0032 0.34916,-0.03874 0.195028,-0.07891 z m -2.086333,-0.29906 c -0.137729,-0.137729 -0.203647,-0.333785 -0.146495,-0.435678 0.06777,-0.120811 0.02971,-0.116379 -0.109393,0.01277 -0.117373,0.108914 -0.499647,0.198031 -0.849556,0.198031 -0.542765,0 -0.74435,-0.106507 -1.372518,-0.725235 -0.570438,-0.561849 -0.757425,-0.670207 -0.830047,-0.480944 -0.215029,0.560326 1.700843,1.643091 2.953053,1.66896 0.551888,0.01142 0.583281,-0.0096 0.355005,-0.237908 z m 2.009893,-0.06643 c 1.527767,0 1.302229,-0.09567 -0.486521,-0.206368 -1.294764,-0.08013 -1.452874,-0.06238 -1.281664,0.143908 0.107428,0.12942 0.296625,0.196419 0.420493,0.148884 0.12388,-0.04754 0.730341,-0.08642 1.347692,-0.08642 z m -5.02992,-0.475294 c -0.459966,-0.4801 -0.554503,-0.54634 -0.554503,-0.388507 0,0.10873 0.807825,0.863801 0.924143,0.863801 0.04715,0 -0.119215,-0.213883 -0.36964,-0.475294 z m 2.284038,0.101978 c -0.03634,-0.03105 -0.315545,-0.102248 -0.620518,-0.15821 -0.390119,-0.07159 -0.484054,-0.05557 -0.316859,0.05403 0.214759,0.140787 1.094493,0.238559 0.937377,0.104176 z m 3.261011,-0.270242 c -0.958495,-0.06427 -1.903128,-0.167967 -2.099188,-0.230421 -0.215471,-0.06864 -0.356466,-0.04775 -0.356466,0.05283 0,0.229419 0.592612,0.298716 2.534881,0.296419 l 1.663507,-0.002 z m -2.772525,-0.30525 c 0,-0.183133 -2.413799,-1.427639 -2.769,-1.427639 -0.605013,0 -0.02554,0.808306 0.947064,1.321043 0.525908,0.277256 1.821936,0.353081 1.821936,0.106593 z m 5.49422,-0.358237 c 0.195225,-0.195289 0.215336,-0.277256 0.06802,-0.277256 -0.115041,0 0.01228,-0.206836 0.282899,-0.459635 0.270633,-0.252807 0.492059,-0.540354 0.492059,-0.639003 0,-0.09865 -0.248178,0.06882 -0.551519,0.372148 -0.303329,0.303338 -0.820201,0.631763 -1.148613,0.729836 -0.903319,0.269769 -3.356087,0.377152 -4.07366,0.178347 -0.902914,-0.250147 -0.888856,-0.09356 0.01731,0.192779 1.127385,0.356234 4.527438,0.288967 4.913505,-0.09721 z m -10.484766,0.03961 c -0.0539,-0.08713 -0.129356,-0.158436 -0.167773,-0.158436 -0.03843,0 -0.06986,0.0713 -0.06986,0.158436 0,0.08713 0.07551,0.158429 0.167785,0.158429 0.09233,0 0.123708,-0.0713 0.06986,-0.158429 z m 0.554515,-0.316865 c 0,-0.174275 0.07624,-0.316859 0.16943,-0.316859 0.296158,0 0.08226,-0.707025 -0.232058,-0.76697 -0.258197,-0.04926 -0.286496,0.01154 -0.202002,0.434061 0.119337,0.596569 -0.219694,0.678982 -0.594122,0.144428 -0.133629,-0.190797 -0.297632,-0.29225 -0.364434,-0.225456 -0.1159,0.115888 0.856407,1.034504 1.104364,1.043397 0.06532,0.0023 0.118846,-0.138328 0.118846,-0.312601 z m 1.18709,0.0018 c 0.05549,-0.08981 -0.0086,-0.116367 -0.149074,-0.06226 -0.274464,0.105317 -0.324692,0.218875 -0.09675,0.218875 0.08201,0 0.192647,-0.07047 0.24587,-0.156612 z m 2.918884,-0.06088 c -0.161756,-0.14473 -1.095806,-0.57482 -1.095806,-0.504571 0,0.09849 0.821391,0.548768 1.016592,0.55729 0.0798,0.0034 0.115531,-0.02023 0.07919,-0.05272 z m 2.706509,-0.105378 c -0.846683,-0.06509 -1.914436,-0.262344 -2.440847,-0.45092 -1.184095,-0.424167 -1.670727,-0.417159 -0.727751,0.01044 1.167237,0.529343 1.433144,0.578133 3.089383,0.566888 l 1.584305,-0.0108 z m 1.31895,-0.296975 c 0.435693,-0.07164 0.910711,-0.271963 1.10461,-0.465846 l 0.340161,-0.340176 h -0.854602 c -0.750832,0 -3.481994,0.420292 -3.6265,0.558077 -0.08521,0.08128 1.271719,0.357784 1.796595,0.366093 0.261413,0.0042 0.819292,-0.04902 1.239736,-0.118148 z m 1.728321,-0.326086 c 0.347552,-0.316132 0.43611,-0.472168 0.269798,-0.475288 -0.136194,-0.0026 -0.452525,0.209235 -0.702974,0.470646 -0.589408,0.615205 -0.242125,0.618927 0.433176,0.0047 z m -9.226037,-0.321507 c -0.10129,-0.189194 -0.219744,-0.30835 -0.263317,-0.264778 -0.04359,0.04356 0.0037,0.234013 0.104851,0.423213 0.101289,0.189194 0.219743,0.308351 0.263304,0.264778 0.04359,-0.04356 -0.0037,-0.234014 -0.104851,-0.423213 z m -1.21016,0.07921 c 0.05021,-0.130702 0.0221,-0.237647 -0.06225,-0.237647 -0.08435,0 -0.153457,0.10695 -0.153457,0.237647 0,0.130703 0.02799,0.237647 0.06225,0.237647 0.03426,0 0.103254,-0.106949 0.153457,-0.237647 z m 3.021587,-0.221453 c 0.341683,-0.133801 0.22722,-0.237372 -0.438443,-0.396714 -0.318357,-0.07621 -0.416282,-0.0546 -0.336638,0.07428 0.07759,0.12556 0.0086,0.148714 -0.224359,0.07489 -0.321758,-0.102124 -0.454331,0.06091 -0.231076,0.284161 0.137312,0.137318 0.83971,0.116416 1.230516,-0.03662 z m 1.674029,-0.23247 c 0,-0.206094 0.14722,-0.56187 0.327159,-0.790624 0.179927,-0.228747 0.282089,-0.488836 0.226999,-0.577974 -0.142419,-0.230415 0.650366,-1.894446 1.157919,-2.430453 0.234697,-0.247856 0.818838,-0.649946 1.298091,-0.893523 0.479254,-0.243585 1.192198,-0.740792 1.584305,-1.104904 l 0.712932,-0.662034 -0.523404,0.08782 c -0.287871,0.0483 -0.858211,0.360369 -1.267434,0.693483 -0.40921,0.333115 -1.074431,0.866846 -1.478239,1.186063 -0.40382,0.319223 -0.983774,0.956684 -1.288797,1.416586 -0.598518,0.90243 -1.271609,2.827138 -1.123578,3.21289 0.140614,0.366463 0.374047,0.280766 0.374047,-0.137326 z m 0.779021,-0.06888 c 0.350033,-0.845049 1.390996,-1.728399 2.56587,-2.177336 1.177206,-0.449838 3.256087,-1.88423 3.983187,-2.748347 0.712342,-0.846564 0.493765,-0.934696 -0.322985,-0.130221 -1.050257,1.034455 -1.179147,0.936251 -0.205268,-0.156408 0.442642,-0.496644 0.804816,-1.043231 0.804816,-1.214626 0,-0.171407 -0.02554,-0.281938 -0.05672,-0.245628 -0.03119,0.0363 -0.484975,0.567822 -1.008403,1.181147 -0.683919,0.801402 -1.236286,1.265171 -1.96325,1.648385 -0.556381,0.293279 -1.391008,0.782087 -1.854743,1.086235 -0.984744,0.645859 -2.404677,2.323815 -2.404677,2.841619 0,0.494108 0.240664,0.449947 0.462163,-0.08483 z m 1.15938,-0.06661 c 0.458762,-0.280602 1.061344,-0.662926 1.339061,-0.849603 0.277706,-0.186676 0.99065,-0.460655 1.584305,-0.608842 0.593643,-0.148178 1.227176,-0.365243 1.407828,-0.482363 0.180688,-0.117115 0.5015,-0.250372 0.712944,-0.296118 0.211456,-0.04575 0.13493,-0.05964 -0.170044,-0.03088 -0.776087,0.07319 -2.908031,0.657446 -3.481932,0.954222 -0.294268,0.15217 -0.478824,0.181857 -0.478824,0.07703 0,-0.224023 0.90381,-0.594114 2.202724,-0.901943 0.715056,-0.16946 1.195193,-0.392772 1.520388,-0.707113 l 0.475288,-0.459437 -0.59411,0.246233 c -0.798837,0.331084 -0.76268,0.04926 0.04015,-0.31276 0.348841,-0.157297 0.728352,-0.47467 0.843393,-0.705261 0.168251,-0.337257 -0.07158,-0.208495 -1.225851,0.658351 -0.857462,0.643892 -1.873747,1.245253 -2.525095,1.494138 -1.169938,0.447059 -2.039421,1.102833 -2.408471,1.816474 -0.402531,0.778426 -0.350229,0.785865 0.758273,0.107883 z m -7.008162,0.276447 c 0,-0.04142 -0.365858,-0.760038 -0.813018,-1.596914 -0.785947,-1.470964 -0.81006,-1.554132 -0.72489,-2.499174 0.08066,-0.894415 0.06789,-0.950622 -0.149713,-0.660717 -0.173444,0.231059 -0.220173,0.595726 -0.172573,1.346659 0.05648,0.891514 0.166312,1.194668 0.81761,2.257624 0.41379,0.675308 0.817647,1.227832 0.897463,1.227832 0.0798,0 0.145121,-0.03389 0.145121,-0.07531 z m 4.495086,-0.677228 c 0.143512,-1.081503 0.883455,-2.509079 1.863717,-3.595677 l 0.849765,-0.941971 -0.859145,0.466683 c -0.975585,0.529925 -1.75495,1.486486 -1.75495,2.153964 0,0.535266 -0.26781,0.606586 -0.356908,0.09505 -0.05279,-0.302912 -0.113444,-0.249351 -0.403624,0.356468 -0.388805,0.811617 -0.427442,1.23765 -0.164617,1.814486 0.311457,0.683582 0.711164,0.51465 0.825762,-0.349008 z m 7.852476,-0.333559 c 0.21234,-0.153911 0.419585,-0.380369 0.460543,-0.503248 0.04101,-0.122872 -0.156084,-0.0294 -0.437903,0.207726 -0.567848,0.477811 -1.124094,0.667224 -1.596595,0.543665 -0.171259,-0.04479 -0.567651,0.04921 -0.880876,0.208893 l -0.569456,0.29033 0.526951,0.05462 c 0.577609,0.05988 1.889488,-0.361419 2.497336,-0.801992 z M 35.631745,38.441572 c -0.502875,-1.009115 -0.53584,-2.130016 -0.09147,-3.109202 0.184064,-0.40562 0.236109,-0.660771 0.127342,-0.624516 -0.329725,0.109909 -0.788831,1.730469 -0.685393,2.419338 0.103868,0.692044 0.919808,2.554655 1.005886,2.296383 0.02934,-0.08796 -0.131038,-0.52985 -0.356343,-0.982003 z m 11.660708,1.033056 c -0.114303,-0.04577 -0.251014,-0.04013 -0.30366,0.01251 -0.05267,0.05265 0.04088,0.09009 0.207945,0.08322 0.184568,-0.0076 0.2221,-0.04514 0.09577,-0.09572 z m -2.257874,-0.698146 0.460972,-0.460957 -0.423465,0.0979 c -0.458872,0.10609 -1.770088,0.811591 -1.770088,0.952392 0,0.266094 1.329325,-0.186074 1.732581,-0.589335 z m -17.073358,0.326252 c 0.319786,-0.08882 0.747552,-0.29993 0.950573,-0.469131 l 0.369149,-0.307643 -0.657408,-0.0053 c -0.475479,-0.0038 -0.87267,-0.150126 -1.435204,-0.528691 l -0.777809,-0.52342 -0.282439,0.374432 c -0.155324,0.205936 -0.46187,0.442658 -0.681197,0.526044 -0.34763,0.13217 -0.371188,0.184875 -0.183592,0.410907 0.507361,0.611317 1.609934,0.824968 2.697927,0.522775 z m 10.627887,-0.226389 c -0.198368,-1.037671 1.706614,-3.398401 3.45982,-4.287544 0.960374,-0.487066 1.728566,-1.237313 1.500474,-1.465424 -0.05218,-0.05213 -0.360836,0.158265 -0.685994,0.467534 -0.325158,0.309276 -0.971951,0.76507 -1.437319,1.012885 -0.988206,0.526244 -1.962796,1.450189 -2.242859,2.126326 -0.108534,0.26196 -0.261119,0.476282 -0.339155,0.476282 -0.07809,0 0.03757,-0.354192 0.256981,-0.7871 0.411948,-0.812975 1.459246,-1.725224 2.695864,-2.348245 0.732293,-0.368946 1.530271,-1.142998 1.176224,-1.140974 -0.269934,0.0016 -2.831456,1.859895 -3.672516,2.664369 -0.668843,0.639736 -1.22682,1.940026 -1.22682,2.858931 0,0.632606 0.08877,0.812612 0.400517,0.812612 0.115655,0 0.160283,-0.151614 0.114795,-0.389652 z m 7.928265,-0.633182 c 0.417817,-0.242844 0.722938,-0.478277 0.678051,-0.523186 -0.08508,-0.08506 -2.150692,1.206933 -2.150692,1.345205 0,0.04335 0.160418,-0.02452 0.356466,-0.150826 0.19606,-0.126313 0.698334,-0.428349 1.116175,-0.671193 z m -9.814757,0.461493 c -0.05157,-0.13446 -0.127797,-0.210497 -0.169332,-0.168968 -0.0415,0.04153 -0.02848,0.151546 0.02897,0.244476 0.15622,0.252772 0.24754,0.203667 0.140406,-0.07551 z m 1.65328,-2.273841 c 0.432599,-0.873934 1.486232,-1.832092 3.507789,-3.18994 0.919108,-0.617352 0.665491,-0.607067 -0.343746,0.01394 -0.771226,0.474532 -1.264525,0.529274 -0.662042,0.07347 0.476553,-0.360526 0.09343,-0.280951 -0.42517,0.0883 -0.254391,0.181145 -0.561133,0.519786 -0.681624,0.752544 -0.120443,0.232759 -0.440887,0.672716 -0.711975,0.977699 -0.807124,0.907977 -1.443346,2.319194 -1.422081,3.154296 l 0.01854,0.727236 0.142554,-0.859139 c 0.07845,-0.472524 0.338393,-1.254804 0.577781,-1.738395 z m 8.875121,2.137296 c 0.552182,-0.2873 1.073203,-0.863356 1.221418,-1.350442 l 0.117127,-0.384805 -0.474379,0.384805 c -0.260898,0.211647 -0.446251,0.434266 -0.411899,0.494711 0.03438,0.06044 -0.260099,0.298922 -0.654319,0.529953 -0.394219,0.231024 -0.716762,0.448926 -0.716762,0.484215 0,0.140534 0.514846,0.05176 0.918838,-0.158437 z m -12.321375,-0.63711 c -0.236932,-0.623178 -0.199362,-1.914863 0.07477,-2.570979 0.303206,-0.72566 0.315042,-0.688499 -0.219166,-0.688499 -0.522728,0 -0.646559,0.273218 -0.650022,1.434371 -0.0012,0.463982 0.145686,1.018145 0.412133,1.552856 0.427147,0.857144 0.670562,1.030514 0.382273,0.272251 z m 2.448668,-1.675172 c 0.156624,-0.304984 0.495484,-0.862513 0.753055,-1.238973 0.53983,-0.78904 0.468105,-1.051445 -0.134255,-0.491181 -1.045322,0.972256 -1.543679,2.465022 -1.212308,3.631311 0.09049,0.318517 0.13175,0.22545 0.210633,-0.475288 0.0539,-0.479251 0.22625,-1.120893 0.382875,-1.425869 z m -0.931509,1.627205 c -0.05267,-0.05265 -0.09012,0.04092 -0.08324,0.207939 0.0074,0.184566 0.04518,0.222103 0.09576,0.09572 0.0458,-0.114365 0.04015,-0.251017 -0.01252,-0.303659 z m -11.04769,0.09886 c 0.614835,-0.214328 0.807566,-0.548869 0.828663,-1.438396 0.01614,-0.680744 0.01676,-0.681436 0.140527,-0.158498 0.247438,1.045372 1.33311,1.771992 2.647619,1.771992 0.993747,0 1.708778,-0.460959 2.966108,-1.912155 0.516098,-0.595671 1.241025,-1.243608 1.610984,-1.439857 l 0.672588,-0.356817 -0.625271,-0.45984 -0.625282,-0.45984 -1.223333,0.797158 c -0.672833,0.438434 -1.561972,0.959351 -1.975872,1.157595 -0.831586,0.398304 -0.961578,0.714093 -0.35647,0.865968 0.217844,0.05467 0.396077,0.161206 0.396077,0.236742 0,0.180246 -0.831978,-0.138216 -0.977914,-0.374322 -0.163401,-0.264414 0.137489,-0.559709 1.032414,-1.013207 1.263763,-0.640395 2.956921,-1.822562 2.852451,-1.991592 -0.20555,-0.332614 -1.612494,-0.816185 -2.669307,-0.917445 l -1.109009,-0.106262 0.988493,-0.02324 c 0.638443,-0.015 1.269619,0.08358 1.782341,0.278408 0.617363,0.234575 0.793841,0.254589 0.793841,0.09001 0,-0.580874 1.860095,-1.248366 2.478072,-0.889252 0.237141,0.1378 0.124826,0.172204 -0.576909,0.176716 -0.674982,0.0043 -0.977733,0.09071 -1.343297,0.383193 -0.429001,0.343249 -0.453495,0.412038 -0.269209,0.756383 0.11148,0.208337 0.559008,0.621911 0.994455,0.919056 0.747063,0.509797 0.869446,0.540801 2.170361,0.549878 1.344684,0.0093 1.423187,-0.01129 3.186879,-0.839516 2.148973,-1.009115 3.175178,-1.178109 4.425018,-0.72867 0.720778,0.259182 0.918704,0.266369 2.133369,0.07741 0.786093,-0.122284 1.966026,-0.175473 2.85778,-0.128829 2.287709,0.119656 2.623757,-0.185375 3.273374,-2.971335 0.368583,-1.580795 0.32587,-1.992524 -0.328081,-3.162509 -0.243524,-0.435686 -0.491923,-1.061977 -0.55201,-1.391759 -0.06004,-0.329789 -0.245599,-0.757549 -0.412255,-0.950582 -0.302751,-0.350667 -0.302935,-0.350146 -0.223659,0.599607 0.07366,0.88258 0.06777,0.905248 -0.08337,0.316864 -0.0895,-0.348548 -0.197238,-0.80027 -0.239412,-1.003834 -0.176121,-0.850247 -1.489657,-1.564348 -1.489657,-0.809849 0,0.183263 -0.467001,0.822704 -1.070269,1.465478 -0.588671,0.627196 -1.186857,1.318588 -1.329338,1.536427 -0.142493,0.217841 -0.301671,0.355323 -0.35374,0.305512 -0.05206,-0.04981 0.477694,-0.726099 1.177268,-1.50286 0.699574,-0.776766 1.313229,-1.576791 1.36369,-1.777839 0.19094,-0.760737 -0.284606,-1.479883 -1.613747,-2.440434 -1.361087,-0.983629 -1.596656,-1.072467 -1.708541,-0.644324 -0.04494,0.171889 -0.07944,0.112904 -0.09085,-0.155212 -0.01424,-0.336002 -0.158318,-0.503859 -0.645798,-0.752544 -0.34506,-0.176044 -0.771053,-0.320082 -0.946647,-0.320082 -0.275065,0 -0.298417,0.05482 -0.168668,0.396077 0.08287,0.217839 0.0954,0.396076 0.02787,0.396076 -0.06753,0 -0.212844,-0.249378 -0.323059,-0.55417 -0.404557,-1.118795 -1.552433,-1.615254 -3.927472,-1.698655 -1.170343,-0.04111 -1.278238,-0.02026 -1.148612,0.221953 0.0787,0.147021 0.139387,0.361116 0.134905,0.475768 -0.0049,0.114647 -0.113444,-0.04108 -0.242248,-0.346052 -0.303611,-0.71925 -1.354297,-1.467035 -2.091588,-1.488606 -0.484397,-0.01417 -0.632035,0.07533 -1.051533,0.637447 -0.268412,0.359662 -0.68171,1.001304 -0.918446,1.42587 -0.236747,0.424564 -0.696062,1.186891 -1.020717,1.694054 -0.557878,0.871508 -0.578726,0.949753 -0.379952,1.425869 0.115654,0.277065 0.232008,0.788931 0.258515,1.137479 l 0.04813,0.633717 -0.115163,-0.638132 c -0.06335,-0.350975 -0.233641,-0.807353 -0.378516,-1.014174 -0.23428,-0.334487 -0.238467,-0.435651 -0.03782,-0.915746 0.124027,-0.296845 0.378774,-0.75495 0.566105,-1.018021 0.259141,-0.363933 0.296453,-0.522425 0.156059,-0.662807 -0.140381,-0.140391 -0.220222,-0.128001 -0.333899,0.05181 -0.128915,0.203894 -0.14975,0.200602 -0.151849,-0.02398 -0.0025,-0.298339 0.415914,-0.514533 0.556369,-0.287287 0.185943,0.300883 0.393335,0.137936 0.76969,-0.604769 0.43228,-0.853079 0.35476,-1.105392 -0.472108,-1.536607 -0.2828,-0.147479 -0.358074,-0.240417 -0.195188,-0.241013 0.145796,-5.48e-4 0.473287,0.174205 0.727739,0.388321 l 0.462666,0.389303 0.3284,-0.444173 c 0.180602,-0.244299 0.601697,-0.570365 0.935744,-0.724598 0.546571,-0.252354 1.149165,-0.800305 1.15836,-1.053337 0.0025,-0.05327 -0.166274,-0.0644 -0.373801,-0.02473 -0.207527,0.03967 -0.572784,-0.03028 -0.811668,-0.155446 -0.419008,-0.219547 -0.404311,-0.22541 0.41692,-0.166301 0.468216,0.0337 0.922988,0.0047 1.010626,-0.06455 0.24636,-0.194583 1.067826,-1.328311 1.005272,-1.387441 -0.146435,-0.138429 -1.830335,-0.56034 -2.236353,-0.56034 -0.643367,0 -0.476626,0.359121 0.252009,0.542836 0.320149,0.08073 0.58209,0.205484 0.58209,0.27725 0,0.19747 -0.09331,0.17101 -1.320105,-0.374156 -0.730574,-0.324669 -1.474593,-0.527657 -2.086149,-0.569158 l -0.950576,-0.06451 -0.263304,0.687978 c -0.144813,0.378386 -0.533618,1.32962 -0.864019,2.113847 -0.564312,1.339459 -0.603305,1.538086 -0.643514,3.277503 -0.03745,1.617469 -0.113444,2.070165 -0.601468,3.579737 -0.307257,0.950459 -0.558652,2.030659 -0.558652,2.400456 v 0.672345 l 0.473446,-0.398387 c 0.272221,-0.229049 0.861457,-0.478229 1.386272,-0.586237 0.502041,-0.103315 1.340572,-0.293033 1.863386,-0.421581 0.522826,-0.128549 1.411265,-0.293801 1.974313,-0.367226 1.399958,-0.182556 1.640413,-0.552489 1.090564,-1.677764 -0.08963,-0.18351 -0.423833,-0.484865 -0.742594,-0.669691 -0.318737,-0.18482 -0.500384,-0.337682 -0.403637,-0.339677 0.09675,-0.002 0.437842,0.17409 0.757954,0.391325 0.478369,0.32462 0.598026,0.353218 0.671949,0.160582 0.106201,-0.276865 0.0037,-1.450435 -0.165931,-1.902205 -0.118846,-0.316092 -0.118478,-0.316092 0.137128,-0.0016 0.210646,0.25919 0.246115,0.632497 0.199498,2.099196 -0.0539,1.695426 -0.04113,1.783956 0.259129,1.783956 0.173715,0 0.43627,0.108963 0.583429,0.242144 0.21067,0.190647 0.361192,0.206554 0.707775,0.07478 0.242113,-0.09206 0.475852,-0.131717 0.519425,-0.08815 0.04359,0.04357 -0.126409,0.157401 -0.377743,0.252951 -0.251321,0.09556 -0.688966,0.350701 -0.972552,0.566998 -0.437804,0.333937 -0.515509,0.493634 -0.515006,1.058534 3.44e-4,0.371298 0.13218,0.881073 0.298406,1.15366 0.271542,0.445291 0.351874,0.480142 0.910391,0.394891 0.336908,-0.05143 0.902595,-0.24822 1.257072,-0.437311 1.10731,-0.590666 2.595617,-2.488511 2.932427,-3.739319 0.197619,-0.733948 0.655755,-1.224073 1.136347,-1.215709 0.308399,0.0054 0.290867,0.03477 -0.130068,0.218073 -0.384704,0.16752 -0.558738,0.409906 -0.831545,1.158129 -0.458627,1.257808 -1.771795,2.968544 -2.741278,3.571201 -0.520887,0.323812 -0.77432,0.588843 -0.777573,0.813168 -0.0049,0.302138 -0.01964,0.307253 -0.166299,0.05553 -0.251886,-0.432457 -0.651692,-0.334795 -1.810408,0.442213 -0.590108,0.395706 -1.383764,0.802602 -1.763717,0.904219 -0.735841,0.19681 -0.788156,0.274829 -0.520088,0.775718 0.173358,0.3239 2.006909,1.28816 2.210373,1.162415 0.06102,-0.03775 0.196919,-0.505071 0.301855,-1.038479 0.104973,-0.533416 0.226459,-0.934197 0.27002,-0.890631 0.04359,0.04357 -0.0074,0.519908 -0.113445,1.058528 l -0.192671,0.97931 0.501574,0.501568 c 0.470647,0.470652 0.572194,0.501574 1.647129,0.501574 1.280338,0 2.294106,-0.395349 2.569405,-1.002032 0.08607,-0.189543 0.21261,-0.344626 0.281328,-0.344626 0.06875,0 0.01964,0.203605 -0.109025,0.452449 -0.40506,0.783274 -2.547772,1.497402 -3.452061,1.150506 -0.277509,-0.106446 -0.46398,-0.110117 -0.525638,-0.01031 -0.24037,0.388898 -1.360866,0.783 -2.166972,0.76215 l -0.838064,-0.02167 0.950575,-0.109442 c 0.522827,-0.0602 1.093167,-0.19064 1.267447,-0.289878 0.78187,-0.445237 0.782827,-0.449502 0.219534,-0.96158 -0.295004,-0.268192 -0.607689,-0.490406 -0.694822,-0.493814 -0.322948,-0.01262 -1.805816,-0.779118 -2.125229,-1.098527 -0.181732,-0.181741 -0.330437,-0.508672 -0.330437,-0.726511 0,-0.553305 -0.269873,-0.495362 -0.397424,0.08533 -0.154942,0.705448 -1.590714,2.504014 -2.014473,2.523492 -0.06298,0.0029 0.190216,-0.299588 0.562815,-0.672187 0.723515,-0.723514 1.373794,-1.891271 1.373794,-2.46703 0,-0.488213 -0.424569,-1.454776 -0.827334,-1.883503 -0.185305,-0.197243 -0.264237,-0.358628 -0.175421,-0.358628 0.278577,0 0.691937,0.568891 0.994455,1.368668 0.266803,0.705318 0.339376,0.774271 0.862276,0.819283 0.407774,0.0351 0.847641,-0.09833 1.538915,-0.466765 0.532354,-0.283749 1.001724,-0.603967 1.043025,-0.711598 0.04125,-0.107637 -0.06937,-0.396645 -0.246005,-0.642252 -0.176587,-0.245601 -0.367098,-0.706456 -0.423378,-1.024123 -0.09036,-0.510351 -0.03597,-0.650946 0.467271,-1.208003 0.438418,-0.485278 0.523833,-0.668088 0.37099,-0.79399 -0.499475,-0.411448 -6.236139,0.562843 -7.350632,1.248414 -0.488895,0.300718 -1.007073,1.137883 -1.007073,1.626972 0,0.956637 1.189799,2.001418 2.279209,2.001418 0.320469,0 0.572539,0.07893 0.572539,0.179286 0,0.123441 -0.20975,0.143283 -0.673337,0.0637 -0.370327,-0.06357 -0.886426,-0.12643 -1.146869,-0.139684 -0.435512,-0.02215 -0.473708,0.01832 -0.475291,0.503584 -0.0025,0.660339 -0.361782,0.940708 -1.379752,1.075744 -0.583153,0.07736 -0.862165,0.214034 -1.16036,0.568424 -0.439896,0.522788 -0.48442,0.763157 -0.194555,1.050492 0.108914,0.107969 0.376274,0.567821 0.594113,1.021874 0.340973,0.710713 0.473218,0.839187 0.950586,0.923527 0.482767,0.08529 0.498132,0.100663 0.118822,0.118822 -0.300334,0.01438 -0.436442,0.106986 -0.438108,0.298106 -0.0014,0.152491 -0.07694,0.384194 -0.168049,0.514896 -0.123846,0.177702 -0.140877,0.111566 -0.06751,-0.262165 0.05872,-0.299197 0.02739,-0.543515 -0.07804,-0.608678 -0.09688,-0.05988 -0.353477,-0.509822 -0.570206,-0.999892 -0.590357,-1.334893 -0.936053,-1.440481 -2.044763,-0.624536 -0.995683,0.732762 -1.2496,1.336799 -1.14391,2.721153 0.05101,0.668019 0.03184,0.992776 -0.04744,0.803918 -0.217757,-0.518763 -0.17313,-2.119997 0.07231,-2.594633 0.29561,-0.571674 1.558142,-1.603763 1.961836,-1.603763 0.280691,0 1.080145,-1.011022 1.016299,-1.285241 -0.01243,-0.05336 0.412436,-0.14248 0.944117,-0.198051 1.145654,-0.119743 1.394396,-0.289207 1.397637,-0.952166 0.0012,-0.272525 0.06446,-0.593456 0.14032,-0.713188 0.09098,-0.143593 0.0098,-0.407273 -0.240063,-0.774649 -0.207879,-0.306333 -0.377971,-0.760894 -0.377971,-1.010143 0,-0.784838 -0.616322,-0.601039 -1.535128,0.45779 -0.898392,1.035313 -1.158185,1.466226 -1.158185,1.921 0,0.174863 -0.08168,0.368417 -0.181529,0.430125 -0.179374,0.110854 -0.124435,-0.316852 0.123779,-0.963699 0.09957,-0.259464 -2.764157,1.960328 -3.302851,2.560173 -0.280376,0.312218 -0.702287,1.222415 -0.930652,2.007719 -0.107784,0.370695 -0.06064,0.520039 0.267877,0.84856 0.21928,0.219279 0.370167,0.427211 0.335302,0.462068 -0.03486,0.03487 -0.192814,-0.07964 -0.351023,-0.254444 -0.15819,-0.17481 -0.347863,-0.317832 -0.4215,-0.317832 -0.185518,0 -0.166287,1.22358 0.03037,1.93164 0.198669,0.715334 1.325692,1.754205 2.263569,2.086532 0.825056,0.292346 1.042847,0.303337 1.671073,0.08433 z m 2.23831,-1.432136 c -0.304977,-0.266938 -0.895094,-0.699119 -1.311389,-0.9604 -0.709095,-0.445071 -1.223807,-1.111267 -1.223238,-1.583284 1.37e-4,-0.113248 0.124895,0.04287 0.277256,0.346937 0.161837,0.323016 0.63925,0.79338 1.14836,1.131431 0.741203,0.492155 1.948633,1.577169 1.732768,1.5571 -0.03809,-0.0036 -0.318771,-0.224847 -0.623757,-0.491784 z m 21.339215,-4.73149 c 0.517965,-0.208632 0.870673,-0.838769 0.765713,-1.367961 -0.08472,-0.42713 -0.07931,-0.432505 0.09626,-0.096 0.231026,0.442891 0.606019,0.454746 1.058212,0.03344 0.300616,-0.280055 0.346742,-0.490832 0.346742,-1.584299 0,-1.069643 -0.05046,-1.311767 -0.332365,-1.593637 -0.323795,-0.323804 -0.58096,-0.337551 -1.331142,-0.07115 -0.312365,0.110928 -0.3125,0.108963 -0.0098,-0.138059 0.423489,-0.345065 1.134162,-0.313965 1.514409,0.06627 0.264483,0.264482 0.316871,0.528102 0.316871,1.59472 0,1.461455 -0.124924,1.783352 -0.834492,2.150276 -0.27951,0.144544 -0.698125,0.466106 -0.930219,0.714573 -0.232119,0.248473 -0.553827,0.447245 -0.714921,0.441726 -0.248399,-0.0085 -0.240161,-0.0313 0.05439,-0.149914 z m -2.47752,-0.770076 c -0.103622,-0.250105 -0.37099,-0.537948 -0.594196,-0.639654 -0.223217,-0.101694 -0.363206,-0.227548 -0.3111,-0.279656 0.05206,-0.05211 0.264151,0.01627 0.471224,0.151936 0.343022,0.224757 0.412832,0.222838 0.78548,-0.02161 0.433433,-0.284331 0.958678,-0.895862 1.108992,-1.291163 0.06286,-0.165244 0.09417,-0.135194 0.102886,0.09864 0.0074,0.205875 -0.264667,0.591777 -0.702213,0.9951 -0.587529,0.541561 -0.697254,0.728424 -0.616541,1.049972 0.133616,0.532339 -0.01351,0.494087 -0.24452,-0.06357 z M 38.414399,30.65634 c -0.01891,-0.485998 0.0399,-0.625592 0.291615,-0.691406 0.24366,-0.06372 0.29692,-0.177373 0.234342,-0.500066 -0.07882,-0.406622 -0.07612,-0.408227 0.104973,-0.06113 0.164899,0.316111 0.304261,0.355679 1.231129,0.349508 0.574859,-0.0038 1.327643,-0.107551 1.672851,-0.230503 0.703441,-0.250551 0.930293,-0.203633 0.396576,0.08201 -0.192254,0.102898 -1.066218,0.249323 -1.942121,0.325407 -0.875928,0.07608 -1.646061,0.193732 -1.711414,0.261439 -0.06532,0.06771 -0.149295,0.336989 -0.186508,0.5984 -0.05955,0.418469 -0.07047,0.402494 -0.09147,-0.133657 z m 5.800924,-1.673041 c 0.04874,-0.506717 0.0074,-0.807107 -0.12167,-0.886921 -0.107428,-0.06637 -0.929532,-0.129111 -1.82697,-0.139402 -1.502537,-0.01724 -2.009746,-0.115851 -1.779604,-0.345991 0.04923,-0.04929 0.396761,-0.0069 0.772159,0.09416 0.411358,0.110768 1.07184,0.142091 1.662463,0.07885 l 0.979944,-0.104949 0.343218,-1.485265 c 0.290978,-1.259213 0.462347,-1.646671 1.126046,-2.545749 0.430561,-0.583267 0.780569,-0.997273 0.777794,-0.920009 -0.0025,0.07726 -0.109761,0.278868 -0.237644,0.448013 -0.127932,0.169139 -0.240873,0.525606 -0.250977,0.792146 -0.0098,0.266547 -0.05095,0.359861 -0.09085,0.207369 -0.19978,-0.76448 -0.736971,0.208022 -1.157329,2.095123 -0.180381,0.809891 -0.290032,1.51047 -0.24366,1.556853 0.04641,0.04639 0.08435,-0.0033 0.08435,-0.110363 0,-0.144353 0.429124,-0.18342 1.65975,-0.151093 1.470726,0.03862 1.709818,0.0063 2.099212,-0.283961 0.316049,-0.235591 0.464877,-0.51358 0.530071,-0.990082 0.04985,-0.364379 0.218577,-0.784685 0.374968,-0.93401 0.271665,-0.259382 0.275066,-0.253822 0.07649,0.124579 -0.114304,0.217847 -0.247417,0.673792 -0.295754,1.013229 -0.06139,0.431283 -0.222997,0.717569 -0.536479,0.950582 -0.400689,0.297825 -0.624816,0.32824 -2.0992,0.284852 -1.272455,-0.03745 -1.653845,-0.0011 -1.664698,0.15843 -0.0074,0.113861 -0.0025,0.538414 0.01105,0.943465 0.01375,0.405052 -0.04052,0.776938 -0.120566,0.826414 -0.08447,0.05218 -0.114672,-0.231833 -0.07195,-0.676261 z m 6.119036,-0.218861 c 0.02455,-0.504104 0.138307,-1.003156 0.252635,-1.109011 0.168153,-0.155707 0.185108,-0.13195 0.08877,0.124401 -0.06544,0.174267 -0.179179,0.673326 -0.252623,1.109005 l -0.133555,0.792152 z M 39.438283,22.388229 c 0.331297,-0.5056 0.219731,-1.677675 -0.246717,-2.591973 -0.386374,-0.757378 -0.411788,-1.174263 -0.08791,-1.443018 0.268915,-0.22318 0.306386,-0.107612 0.0938,0.289502 -0.09957,0.186128 -0.02861,0.535836 0.231271,1.138206 0.2063,0.478243 0.377952,1.169168 0.381439,1.535399 0.0061,0.688567 -0.258614,1.472931 -0.498002,1.472931 -0.07514,0 -0.01842,-0.180472 0.126115,-0.401047 z m 6.715466,-0.232669 c 0,-0.174275 0.06458,-0.316866 0.143598,-0.316866 0.07895,0 0.106324,0.142591 0.06077,0.316866 -0.04555,0.174274 -0.110129,0.316857 -0.143586,0.316857 -0.03339,0 -0.06077,-0.142583 -0.06077,-0.316857 z M 44.47449,35.77227 c 1.258705,-0.692586 1.720647,-1.050795 2.338305,-1.813192 0.423354,-0.522547 0.702287,-0.972569 0.619856,-1.00005 -0.08238,-0.02748 -0.49934,0.293122 -0.926463,0.712448 -1.161356,1.140139 -2.413799,2.160107 -2.520909,2.052998 -0.147674,-0.147665 0.264188,-0.569624 1.274899,-1.306172 0.986033,-0.718578 1.535527,-1.331073 1.194125,-1.331073 -0.105955,0 -0.591261,0.379126 -1.078384,0.842512 -0.487136,0.463377 -1.33986,1.083883 -1.894964,1.378903 -1.040066,0.552751 -1.514065,1.093091 -2.012214,2.29384 l -0.262898,0.633724 0.850047,-0.800423 c 0.467528,-0.440237 1.555895,-1.188818 2.4186,-1.663515 z m -6.85597,1.119329 c 0.114426,-0.303852 0.547136,-1.000537 0.961662,-1.548193 0.944535,-1.247913 1.192234,-1.686965 0.896039,-1.588234 -0.255029,0.08501 -1.667129,2.067224 -1.950728,2.738301 -0.110498,0.26141 -0.242223,0.724816 -0.292733,1.0298 -0.09564,0.577576 -0.0275,0.46588 0.38576,-0.631674 z m -1.86357,-1.404306 c -0.141081,-0.213349 -0.365649,1.354523 -0.263574,1.840287 0.112585,0.536041 0.132634,0.479881 0.212352,-0.59646 0.04837,-0.653524 0.07146,-1.213248 0.0512,-1.243827 z m 0.831533,-0.476783 0.268939,-0.418195 -0.368252,0.316859 c -0.320714,0.275953 -0.355189,0.281068 -0.267135,0.03961 0.140468,-0.385216 0.0012,-0.347383 -0.216047,0.05872 -0.141904,0.265168 -0.13741,0.309776 0.02136,0.211654 0.148398,-0.09173 0.169479,-0.04481 0.08029,0.178923 -0.06642,0.166781 -0.148976,0.731002 -0.183365,1.253817 l -0.06249,0.950582 0.228878,-1.086886 c 0.125906,-0.597783 0.349922,-1.27507 0.497829,-1.505087 z m 11.735454,1.534564 c 0.201683,-0.189461 0.365588,-0.421171 0.364262,-0.514898 -0.0012,-0.09373 -0.06875,-0.06555 -0.149811,0.06263 -0.08103,0.128186 -0.19838,0.18209 -0.260664,0.119792 -0.06225,-0.06228 0.0049,-0.244079 0.149823,-0.403962 0.405158,-0.447697 0.311726,-0.564652 -0.156735,-0.196173 -0.350143,0.275433 -0.847629,0.989094 -0.847629,1.215977 0,0.194822 0.588966,0.0096 0.900754,-0.283372 z M 32.57378,36.410922 c -0.06851,-0.262145 -0.12609,-0.285037 -0.317374,-0.126287 -0.202972,0.16844 -0.195225,0.209044 0.05893,0.309064 0.160922,0.06333 0.303746,0.12016 0.317387,0.126287 0.01363,0.0061 -0.01289,-0.132959 -0.05893,-0.309064 z m 4.924027,-1.725724 c 0.15218,-0.189441 0.125231,-0.194822 -0.174893,-0.03492 -0.195164,0.103979 -0.462519,0.39729 -0.59411,0.65179 -0.386816,0.748018 -0.274317,0.891665 0.174893,0.223317 0.227785,-0.338921 0.495141,-0.717007 0.59411,-0.840194 z m -17.445419,0.04834 c 0.745688,-0.07348 1.069402,-0.170751 1.069402,-0.321336 0,-0.138292 -0.186314,-0.215953 -0.518077,-0.215953 -0.284957,0 -1.031919,-0.142393 -1.659952,-0.316427 -1.00945,-0.279738 -1.280797,-0.295768 -2.339934,-0.138237 -1.184012,0.176098 -1.19475,0.181926 -0.914539,0.496501 0.679984,0.763397 1.127866,0.814258 4.3631,0.495452 z m 28.60928,-0.617083 c -0.04874,-0.0487 -0.213751,0.109724 -0.366754,0.352065 l -0.278209,0.440629 0.366767,-0.352066 c 0.201707,-0.193636 0.326901,-0.391921 0.278196,-0.440628 z m -4.409082,-0.731194 c 0,-0.298312 -0.298651,-0.114205 -0.728119,0.448857 L 43.0756,34.42261 43.664099,33.973747 c 0.323673,-0.246876 0.588487,-0.511695 0.588487,-0.588486 z m -23.162479,0.462404 c 0.289104,-0.289096 0.227267,-0.602032 -0.118945,-0.602032 -0.850137,0 -2.001507,-0.385038 -2.428655,-0.812189 -0.364147,-0.364145 -0.595486,-0.455253 -1.155999,-0.455253 -0.746695,0 -0.803637,0.07616 -0.520868,0.696768 0.207795,0.456042 0.267205,0.485312 1.958922,0.964974 1.484429,0.42089 2.004694,0.468589 2.26555,0.207732 z m 27.428946,-0.650987 c -0.01105,-0.334664 -0.01596,-0.335748 -0.147294,-0.03025 -0.187392,0.436077 -0.187392,0.591098 0,0.475287 0.08717,-0.05386 0.15342,-0.254115 0.147294,-0.445029 z M 16.614001,32.572303 c -0.203173,-0.486792 -0.276969,-0.523542 -1.351999,-0.673326 -1.170842,-0.163133 -1.586418,-0.439387 -1.586418,-1.054578 0,-0.154589 -0.213883,-0.618331 -0.475294,-1.030527 -0.261411,-0.412202 -0.472155,-0.89591 -0.468335,-1.074908 0.0044,-0.204346 0.08605,-0.103819 0.219492,0.270167 0.116906,0.327588 0.307478,0.719702 0.423514,0.871364 0.116023,0.151661 0.221488,0.295802 0.234337,0.320307 0.01285,0.02451 0.237894,-0.07858 0.5001,-0.229056 0.431558,-0.247678 0.485778,-0.37031 0.572009,-1.293913 0.05241,-0.561163 0.05721,-1.081908 0.01068,-1.157204 -0.117902,-0.190784 -0.858056,-0.172217 -0.858056,0.02152 0,0.08713 -0.08002,0.158429 -0.177825,0.158429 -0.12288,0 -0.11687,-0.07346 0.0194,-0.237648 0.108472,-0.130703 0.360459,-0.23764 0.559971,-0.23764 0.30442,0 0.379916,-0.108288 0.469425,-0.673333 0.244538,-1.543421 0.919592,-2.336843 1.988232,-2.336843 0.41127,0 0.467828,-0.05589 0.467828,-0.462329 0,-0.56228 0.141337,-0.96354 0.339388,-0.96354 0.0846,0 0.07741,0.130127 -0.01694,0.306443 -0.34026,0.635768 -0.183003,1.599014 0.485441,2.973734 0.357202,0.734601 0.620354,1.364746 0.584769,1.400323 -0.09929,0.0993 -1.39265,-2.529924 -1.39265,-2.831074 0,-0.336494 -0.636932,-0.35352 -1.255667,-0.03357 -0.839346,0.434046 -1.279131,2.600907 -0.724707,3.570762 0.294205,0.51467 0.293746,0.800367 -6.87e-4,0.411366 -0.209748,-0.277126 -0.236632,-0.279724 -0.331675,-0.03206 -0.197263,0.514068 0.05782,1.557039 0.484655,1.981713 l 0.413615,0.411509 3.439976,-0.04177 3.439985,-0.04177 0.609672,-0.609671 c 0.607594,-0.607608 0.6088,-0.611338 0.35395,-1.104164 -0.371421,-0.718248 -1.084183,-1.032625 -2.350787,-1.036828 -0.736809,-0.0025 -0.989375,-0.04904 -0.81002,-0.149407 0.38106,-0.213252 2.063281,-0.01984 2.53911,0.291929 0.387664,0.254007 0.42488,0.25267 0.698502,-0.0251 0.269824,-0.273897 0.273883,-0.364962 0.06107,-1.370113 -0.125403,-0.592195 -0.255974,-1.376422 -0.290201,-1.742728 -0.03422,-0.366313 -0.117288,-0.808601 -0.184566,-0.982876 -0.06731,-0.174274 -0.0641,-0.26401 0.0071,-0.199416 0.07122,0.0646 0.220507,0.0419 0.331771,-0.05042 0.161412,-0.133966 0.184682,0.0027 0.115175,0.676109 -0.0857,0.830205 0.294835,3.224291 0.605852,3.811735 0.08449,0.159587 0.329309,0.277537 0.576892,0.277914 0.331689,4.8e-4 0.711063,-0.292717 1.657936,-1.281434 1.398275,-1.460062 1.468066,-1.708275 0.844021,-3.001831 -0.305992,-0.634313 -0.355137,-0.895512 -0.242426,-1.288496 0.173588,-0.605291 0.590152,-1.086577 0.928048,-1.072241 0.179772,0.0076 0.153094,0.05888 -0.09249,0.177613 -0.600041,0.290092 -0.764826,0.961312 -0.449565,1.831059 0.15016,0.414224 0.308144,1.013968 0.351094,1.33276 0.05661,0.420135 0.170428,0.603769 0.413636,0.667367 0.453169,0.118515 0.568444,-0.12462 0.563357,-1.188229 -0.0029,-0.61009 0.178589,-1.466164 0.562938,-2.655071 0.494812,-1.530601 0.56725,-1.955535 0.56725,-3.327775 0,-1.730098 0.195937,-2.515072 1.170896,-4.690729 0.312377,-0.69709 0.568842,-1.423806 0.569898,-1.614926 0.0025,-0.546737 -0.578775,-0.841053 -1.657233,-0.838316 -1.328654,0.0034 -1.515002,0.153018 -0.980942,0.787703 0.232144,0.275891 0.422089,0.550679 0.422089,0.610638 0,0.173876 -0.641538,1.32299 -0.861299,1.542743 -0.110044,0.110055 -0.241734,0.750719 -0.292635,1.423695 -0.124367,1.644456 -0.699739,2.76177 -2.368946,4.600253 -1.980355,2.181218 -1.893032,2.047041 -1.540144,2.366407 0.16401,0.148412 0.380807,0.528575 0.481787,0.844796 0.100983,0.316228 0.321706,0.824488 0.490501,1.129465 l 0.306876,0.554504 -0.347087,-0.422356 c -0.190895,-0.2323 -0.498483,-0.80265 -0.683563,-1.267441 -0.297784,-0.747894 -0.414279,-0.872021 -1.012988,-1.079282 -0.937904,-0.324695 -1.164075,-0.140554 -1.400453,1.140243 -0.314754,1.705402 -0.697694,2.241655 -1.999121,2.799472 -1.082833,0.464119 -1.70597,1.646658 -1.248255,2.368821 0.07763,0.122481 0.630014,0.269241 1.304608,0.346614 l 1.169991,0.1342 -1.188222,-0.04824 c -1.402187,-0.05692 -2.878486,-0.53877 -3.512901,-1.14659 -0.244505,-0.23424 -0.408891,-0.46154 -0.365327,-0.505113 0.04357,-0.04356 0.275529,0.108877 0.515487,0.338765 0.239957,0.229886 0.738269,0.524529 1.107358,0.654752 l 0.671077,0.236769 6.17e-4,-0.587086 c 7.96e-4,-0.784413 0.513422,-1.583031 1.200393,-1.870065 l 0.56032,-0.234115 -0.71175,-0.791626 c -0.670665,-0.745947 -1.191869,-1.800169 -0.989854,-2.002178 0.0502,-0.0502 0.134398,0.04368 0.187109,0.208652 0.243728,0.762801 0.398462,1.012866 0.62673,1.012866 0.423879,0 0.997856,-0.475967 1.401523,-1.16219 0.213451,-0.362864 0.587011,-0.837993 0.830123,-1.055834 l 0.442021,-0.396075 -0.477653,0.633723 c -0.262694,0.348542 -0.635966,0.896383 -0.829507,1.217424 -0.193519,0.32104 -0.562821,0.677089 -0.820668,0.791219 -0.257826,0.114132 -0.468794,0.260274 -0.468794,0.324764 0,0.06449 0.209811,0.350084 0.466257,0.634657 0.385765,0.428074 0.515679,0.487478 0.752544,0.344098 0.451291,-0.273177 0.983472,-1.154908 1.077472,-1.785175 0.04728,-0.317023 0.17376,-0.86158 0.281096,-1.210128 0.161,-0.522816 0.2745,-0.642796 0.648519,-0.685558 l 0.453369,-0.05184 -0.09421,-1.057178 c -0.279339,-3.135104 -0.289117,-3.91362 -0.05745,-4.575934 0.165498,-0.473142 0.181769,-0.685585 0.05597,-0.730857 -0.09753,-0.0351 -0.122677,-0.122309 -0.05586,-0.193774 0.06679,-0.07148 0.197292,-0.05412 0.289975,0.03856 0.119055,0.119055 0.09504,0.384907 -0.08187,0.905947 -0.318538,0.938213 -0.316989,1.470682 0.01117,3.855355 0.281739,2.047348 0.413278,2.263343 0.953085,1.564985 0.159759,-0.206678 0.84245,-0.998885 1.517093,-1.760452 1.566842,-1.768706 2.125532,-2.908804 2.233328,-4.557436 0.09408,-1.438842 0.410446,-1.320968 -2.699333,-1.005802 -2.393387,0.242549 -2.802915,0.422939 -3.51718,1.549214 -0.424435,0.66926 -1.030479,1.190368 -4.112508,3.536165 -1.20234,0.915128 -1.681913,1.553267 -1.821013,2.423158 -0.116404,0.727888 -0.579456,1.369023 -1.232788,1.706875 -0.257579,0.133198 -0.607485,0.470413 -0.777577,0.749376 -0.195899,0.321288 -0.309474,0.409227 -0.309858,0.239917 -3.42e-4,-0.147014 0.220691,-0.467835 0.491166,-0.712942 1.441901,-1.306714 1.545693,-1.43494 1.652048,-2.041205 0.168912,-0.962998 0.666023,-1.585347 2.213022,-2.770608 0.784234,-0.600847 1.782249,-1.369036 2.217804,-1.707088 0.435569,-0.338044 1.117787,-1.034778 1.516043,-1.548297 1.007669,-1.299259 1.440927,-1.469221 4.239324,-1.663001 2.282563,-0.158052 2.33269,-0.169481 2.76047,-0.629289 1.237662,-1.330354 -0.354822,-2.327661 -2.025233,-1.268316 -0.401047,0.254335 -1.633334,0.826263 -2.73841,1.270943 -1.105082,0.444681 -2.273648,0.967345 -2.5968,1.161476 -0.323159,0.194123 -0.980647,0.584159 -1.461105,0.866736 -0.480437,0.282576 -0.997581,0.703123 -1.149216,0.934545 -0.151635,0.231422 -0.927798,0.902389 -1.724813,1.491025 -1.453328,1.073358 -2.003775,1.720211 -2.217419,2.6057 -0.06307,0.261411 -0.246642,0.66424 -0.407958,0.895176 -0.357605,0.511948 -1.167961,2.278768 -1.587692,3.46165 -0.452175,1.274303 -0.552333,3.320129 -0.224922,4.594474 0.516782,2.011537 1.635509,2.939355 3.609939,2.993952 l 0.586477,0.01622 z m 9.735979,-9.400177 c -0.246787,-0.136941 -0.302994,-0.220658 -0.149097,-0.22211 0.135824,-0.0012 0.385366,0.102333 0.554505,0.230269 0.384524,0.290852 0.124018,0.285607 -0.405408,-0.0081 z m -6.404736,-2.103014 c -0.137119,-0.265183 -0.242021,-0.681746 -0.233101,-0.925701 l 0.01621,-0.443549 0.114709,0.475294 c 0.06308,0.261405 0.204155,0.641807 0.313486,0.845324 0.109319,0.203524 0.162611,0.406204 0.118405,0.450406 -0.04421,0.0442 -0.192573,-0.136599 -0.329707,-0.401774 z m 5.398468,-1.232582 c -0.166965,-0.878632 0.101486,-1.841796 0.800928,-2.873797 0.311621,-0.459778 0.599457,-0.803109 0.639614,-0.762944 0.04016,0.04016 -0.103475,0.309404 -0.319169,0.598324 -0.670193,0.897644 -0.807792,1.279089 -0.903801,2.50568 -0.08875,1.133686 -0.09874,1.158136 -0.217572,0.532737 z m -3.836239,12.795465 c 0.129468,-0.25036 0.190721,-0.499888 0.136111,-0.554506 -0.05463,-0.05461 -0.809088,-0.0993 -1.676605,-0.0993 -1.408694,0 -1.555448,0.02632 -1.372891,0.246301 0.301651,0.36346 0.784844,0.594231 1.497909,0.715382 1.07824,0.183195 1.172096,0.162783 1.415476,-0.307877 z m 0.587347,-1.171054 c 0.225087,-0.420561 -0.161926,-0.49535 -1.735981,-0.335453 -0.756726,0.07687 -2.030735,0.126143 -2.831177,0.109479 -1.613211,-0.03357 -2.324337,-0.285723 -2.616945,-0.927915 -0.215528,-0.473032 -0.347498,-0.48394 -0.767956,-0.06349 -0.226348,0.226356 -0.292573,0.430674 -0.218251,0.673327 0.25485,0.831981 0.402666,0.85654 5.034492,0.836547 2.683533,-0.01154 3.001345,-0.04123 3.135818,-0.292497 z m 2.658822,-2.623225 c -0.124085,-0.03821 -0.349035,-0.176948 -0.499881,-0.308309 -0.215432,-0.187595 -0.323228,-0.198223 -0.502363,-0.04954 -0.19764,0.16403 -0.193424,0.249679 0.03159,0.641758 l 0.259677,0.452463 0.468287,-0.33345 c 0.328062,-0.233602 0.400739,-0.354252 0.242687,-0.402919 z M 51.945577,26.188492 C 51.861357,25.739485 51.42965,24.720436 50.33032,22.375517 50.203211,22.104397 49.919366,21.800628 49.699562,21.700476 49.33034,21.53225 49.30808,21.54416 49.407307,21.856794 c 0.06544,0.206362 0.04653,0.300815 -0.0485,0.242056 -0.08582,-0.053 -0.241352,-0.43622 -0.345772,-0.851598 -0.384152,-1.528015 -1.343702,-2.420359 -2.859277,-2.659021 -0.39212,-0.06174 -0.819882,-0.178641 -0.950588,-0.259752 -0.235103,-0.145908 0.04751,-0.119583 1.279368,0.119154 l 0.487233,0.09441 -0.247195,-0.478002 c -0.421255,-0.814649 -1.136875,-1.20186 -2.347612,-1.270273 -1.192173,-0.06737 -1.48121,-0.341733 -0.360026,-0.341733 0.39212,0 0.712944,-0.06582 0.712944,-0.146273 0,-0.382981 -0.847236,-1.116423 -1.39582,-1.208332 -1.130872,-0.189481 -1.588627,-0.408747 -2.477913,-1.18694 -0.644951,-0.564392 -1.030232,-0.785482 -1.368761,-0.785482 -0.689236,0 -1.463592,0.370839 -1.86034,0.890912 -0.191211,0.25066 -0.66257,0.858597 -1.047458,1.350978 l -0.699795,0.895244 0.979195,0.605805 c 0.929654,0.575177 1.06332,0.610412 2.642702,0.696741 1.772482,0.09688 2.628189,0.375122 3.134944,1.019364 0.159645,0.202947 0.534184,0.391215 0.894664,0.449713 1.287594,0.208947 4.724664,2.676402 4.943671,3.549048 0.06126,0.243935 0.208276,0.364853 0.443673,0.364853 0.573312,0 1.960587,1.358663 2.164799,2.120162 0.281868,1.051041 0.649948,1.839155 0.812134,1.738915 0.08275,-0.05117 0.106201,-0.329391 0.05206,-0.618262 z M 38.707537,15.352387 c 0,-0.09228 0.07133,-0.167781 0.158429,-0.167781 0.08717,0 0.158429,0.03144 0.158429,0.06987 0,0.03843 -0.07133,0.113923 -0.158429,0.167781 -0.08717,0.05386 -0.158429,0.02241 -0.158429,-0.06987 z m 1.055131,-0.177716 c -0.770268,-0.06831 -1.447546,-0.173663 -1.505078,-0.234136 -0.186545,-0.196146 2.820959,0.01683 3.017842,0.213719 0.103868,0.103831 0.121056,0.178846 0.03831,0.166697 -0.08275,-0.01215 -0.780741,-0.07797 -1.551033,-0.14628 z"
   id="path4755-0"
   sodipodi:nodetypes="csssssssssscccssssssssssssssssssssssssssssssssssssssssssssssssccsssssssssssssssssssssssssccssssssccsssssccssccsssccssssccssssccscccccsscccccsccssccssssssccsssccssccssccssccccssccsssssssccsssccssssssccssccssccsscccccccssccssccsssccsssccssssccsssscccssssccssssssssssccsssssssscccsssssccsssssscccccssssccssscccccssssccssccccsccccccccssccssssssssssssccsssccssccssssssccccccccsssccssssccssssccssccsssscccccsssssscccsssssssscssssssssssssssssssssssssssssssssscccsssssssssscccssssssssssscccssscccsssssssssssssssssssssssssssssssssscccsssssscccssssssssssssssssssssssssssssssssssssssssssssssssssssssssssssccsssssccssssssssssssccssssssssccsssssssssccsssscccsssssssssssssssssssccssccccssssssccsssccsssssssscccccssssccssccccsssscccccssssssccsssccsssccsssssccccccccccccsssssccssccsssssssssssssssssssssssssscccccssssssssssssssssssssssssssssssscsscccssssscccsssccccccsssscccssssssscccsssssssssssssssssssssssssssssssssccccsscccccssccssssccssssccssssssccsscccccssssssscccssssssscccsssssssccsssccsssc"
   style="display:inline;fill:#000000;stroke-width:0.0685633" /><path
   style="display:none;fill:#716fe0;fill-opacity:1;stroke-width:0.0567738"
   d="m 102.05612,51.145164 c -3.723197,-0.178025 -7.377041,-1.509598 -10.41369,-3.795073 -1.768205,-1.330806 -3.165146,-2.811968 -4.395241,-4.660231 -1.235347,-1.856153 -2.05307,-3.690521 -2.593777,-5.818527 -1.896066,-7.462152 0.85875,-15.249545 7.031563,-19.877023 2.568503,-1.925491 5.476636,-3.133325 8.667925,-3.60005 4.95343,-0.724434 10.09964,0.600517 14.10834,3.632356 6.56178,4.962778 9.1853,13.41825 6.58316,21.217188 -0.99112,2.970518 -2.83847,5.808006 -5.15765,7.922016 -2.85786,2.605034 -6.34118,4.261404 -10.11734,4.810938 -0.71971,0.104738 -1.08819,0.133942 -2.43587,0.193051 -0.21858,0.0096 -0.79342,-0.0015 -1.27742,-0.02464 z m 6.59316,-7.748636 c 0.0822,-0.0425 0.21922,-0.160221 0.30453,-0.261605 0.14162,-0.168313 0.1519,-0.211668 0.11824,-0.498811 -0.0203,-0.172963 -0.16368,-0.630698 -0.31867,-1.01719 -0.15499,-0.386492 -0.2818,-0.733271 -0.2818,-0.770621 0,-0.03735 0.18523,-0.193754 0.41161,-0.347566 0.22639,-0.153812 0.5906,-0.458829 0.80936,-0.677816 0.32145,-0.321796 0.53113,-0.46732 1.09325,-0.758779 0.75295,-0.390403 1.07026,-0.613109 1.21014,-0.849349 0.0493,-0.08316 0.31091,-0.524235 0.58147,-0.98016 0.27056,-0.455926 0.52976,-0.936174 0.576,-1.067219 0.16476,-0.46698 0.274,-1.467645 0.24014,-2.199812 -0.0438,-0.946467 -0.0514,-0.92851 0.39528,-0.92851 0.82574,0 1.22856,-0.471785 1.5485,-1.813624 0.16555,-0.694316 0.18773,-1.017384 0.12915,-1.881482 -0.0518,-0.764091 -0.0553,-0.778314 -0.37755,-1.532898 -0.565,-1.322962 -1.03121,-2.039065 -1.32749,-2.039065 -0.0868,0 -0.13022,-0.04438 -0.15277,-0.156128 -0.0692,-0.342842 -0.34413,-0.777309 -0.72292,-1.142369 -0.21477,-0.206984 -0.50568,-0.535482 -0.64648,-0.729994 -0.32814,-0.453341 -0.71454,-0.792429 -1.00069,-0.878162 -0.18966,-0.05682 -0.24328,-0.108852 -0.33627,-0.326274 -0.19984,-0.467226 -0.53188,-0.706125 -1.11284,-0.800678 -0.40747,-0.06632 -0.81562,-0.274278 -1.30084,-0.662817 -0.64483,-0.516331 -0.89065,-0.594467 -1.40229,-0.445728 -0.33201,0.09652 -0.40168,0.09012 -0.99926,-0.09176 -0.27114,-0.08252 -0.6552,-0.126141 -1.44774,-0.164419 -1.44937,-0.07 -1.62196,-0.105189 -1.88827,-0.384986 -0.18345,-0.19274 -0.25749,-0.228755 -0.54371,-0.264465 -0.5136,-0.06408 -1.10963,-0.0062 -1.38381,0.134312 -0.13146,0.06739 -0.28598,0.122523 -0.34337,0.122523 -0.0574,0 -0.499111,0.20203 -0.98161,0.448956 -0.4825,0.246925 -1.349915,0.644945 -1.92759,0.884488 -1.503865,0.623607 -2.162983,1.016887 -2.946338,1.758017 -0.237442,0.224644 -0.648875,0.571918 -0.914292,0.771721 -0.265419,0.199803 -0.648643,0.531429 -0.85161,0.736945 -0.343575,0.347891 -0.412704,0.465494 -1.002133,1.70482 -0.952507,2.002729 -1.156198,2.682058 -1.154293,3.849673 0.0032,1.947997 0.798307,2.88118 2.596424,3.04723 0.226386,0.02091 0.411612,0.05807 0.411612,0.08258 0,0.02451 -0.121356,0.06128 -0.269677,0.0817 -0.669117,0.09213 -0.865803,0.15116 -0.865803,0.259855 0,0.114558 0.366612,0.437682 0.673482,0.593594 0.302176,0.153526 0.723719,0.167061 1.828393,0.05871 1.104105,-0.108299 1.128231,-0.104658 1.131107,0.170696 0.003,0.287332 0.13862,0.559405 0.44308,0.888889 0.518003,0.560578 0.810861,0.763085 1.334539,0.922817 0.325864,0.0994 0.517956,0.194287 0.629965,0.311199 0.274907,0.286941 0.673292,0.424021 1.226503,0.422026 0.550121,-0.002 0.890751,-0.101404 1.346671,-0.393054 0.16396,-0.104885 0.44643,-0.265572 0.62771,-0.35708 l 0.32959,-0.166379 0.1573,0.300436 c 0.28497,0.544282 1.01057,1.302333 1.50708,1.574477 0.12835,0.07035 0.22895,0.210308 0.36726,0.510966 0.24865,0.54051 0.83104,1.414578 1.76637,2.651039 0.4157,0.549533 0.88919,1.216311 1.0522,1.481729 0.3168,0.51582 0.58211,0.832111 0.76579,0.912959 0.14602,0.06427 0.69386,0.0065 0.88737,-0.09355 z"
   id="path394-7" /><path
   style="fill:#4f5d73;fill-opacity:1;stroke-width:0.196193"
   d="M 30.319568,63.767321 C 16.840585,62.924201 5.3620054,53.838631 1.4061504,40.881671 0.25517543,37.111783 -0.17935057,31.52305 0.36773943,27.525983 2.5867074,11.314098 17.20032,-0.88219455 33.463446,-0.09517755 c 8.29496,0.401416 15.693619,3.68846805 21.521788,9.56163405 2.47873,2.4978725 4.224197,4.9623175 5.878214,8.2995515 1.458763,2.943284 2.106869,4.794596 2.793015,7.978148 0.593058,2.751723 0.641478,8.67711 0.09491,11.611397 -2.395933,12.861601 -12.226624,22.995038 -24.98062,25.749898 -1.725341,0.37268 -6.055987,0.83426 -7.075683,0.75419 -0.216141,-0.0169 -0.835092,-0.0585 -1.375446,-0.0923 z m 11.64217,-13.119262 c 0.589469,-0.365982 0.579773,-1.263147 -0.03114,-2.881256 l -0.473245,-1.253476 1.387695,-1.150714 c 0.763236,-0.632897 2.055738,-1.549115 2.872225,-2.036045 1.416288,-0.844643 1.536093,-0.973958 2.607097,-2.81426 1.218199,-2.093205 1.405251,-2.812489 1.43224,-5.5075 l 0.01573,-1.567164 0.833031,-0.110841 c 1.131351,-0.150539 1.743571,-0.784978 2.245076,-2.326563 0.502781,-1.54553 0.558216,-4.545081 0.107027,-5.790201 -0.586005,-1.617084 -1.612058,-3.474825 -2.184355,-3.954918 -0.325787,-0.273301 -0.741916,-0.817544 -0.924712,-1.209429 -0.27052,-0.579905 -2.197224,-2.680804 -4.001517,-4.363295 -0.189076,-0.176306 -0.540267,-0.540495 -0.780419,-0.809309 -0.242204,-0.271105 -0.911741,-0.626445 -1.50353,-0.797957 -0.586778,-0.170064 -1.551821,-0.672677 -2.14454,-1.11692 -1.017945,-0.762948 -1.137571,-0.802844 -2.158382,-0.719822 -0.59439,0.04833 -1.293536,0.0085 -1.553659,-0.08854 -0.260125,-0.09703 -1.580553,-0.26072 -2.934285,-0.363733 -2.131084,-0.162168 -2.556781,-0.253245 -3.172718,-0.678792 -1.342879,-0.927789 -2.258384,-0.713124 -7.960476,1.866556 -3.683143,1.666287 -4.066491,1.905483 -7.038207,4.391578 -2.193851,1.835345 -2.278116,1.935612 -3.183069,3.787494 -1.689942,3.458277 -2.104141,4.681722 -2.21042,6.52905 -0.124151,2.157928 0.175827,3.428369 1.049879,4.4464 0.670483,0.780929 1.92986,1.378709 3.016773,1.431952 0.421205,0.02064 0.381429,0.0593 -0.238881,0.232245 -0.912744,0.254467 -0.895998,0.6237 0.05787,1.276048 0.654581,0.447664 0.791981,0.464369 2.967366,0.360758 l 2.281003,-0.108643 0.227603,0.757359 c 0.262608,0.873851 1.86941,2.431178 2.722835,2.638998 0.299058,0.07283 0.88247,0.36415 1.296474,0.647391 0.54409,0.372237 1.078092,0.538444 1.926528,0.599629 1.060093,0.07644 1.310006,0.01351 2.579999,-0.649759 l 1.406207,-0.734403 0.286926,0.465215 c 0.157808,0.25587 0.882299,1.04213 1.609982,1.747245 0.727679,0.705117 1.606467,1.762952 1.952861,2.350747 0.942104,1.598651 5.304568,7.612959 5.669878,7.816776 0.385685,0.215185 1.339064,0.06201 1.941299,-0.311895 z"
   id="path1206" /><text
   xml:space="preserve"
   style="font-weight:bold;font-size:6.70134px;line-height:0;font-family:Arial;-inkscape-font-specification:'Arial Bold';text-align:center;text-anchor:middle;fill:#716fe0;fill-opacity:1;stroke-width:0.0558445"
   id="text11615"
   transform="matrix(-0.72244194,-0.99435602,0.99435602,-0.72244194,74.840705,156.33628)"><textPath
     xlink:href="#path394-7"
     startOffset="50%"
     id="textPath14027"
     style="font-size:6.70134px;fill:#00ba5a;fill-opacity:0.924479;stroke-width:0.0558445">BRAINWAVE</textPath></text></svg>
